<svg width="80" height="80" viewBox="0 0 80 80" fill="none" xmlns="http://www.w3.org/2000/svg">
<g clip-path="url(#clip0)">
<rect width="80" height="80" rx="6" fill="#232121"/>
<path d="M34.3 19L29.26 34.48H29.14L24.22 19H17.38L24.28 39.4L16.9 61H23.08L28.48 44.38H28.6L33.94 61H40.9L33.52 39.4L40.42 19H34.3Z" fill="white"/>
<path d="M42.56 29.08C42.56 33.88 44.3 37.36 49.82 42.22C54.14 46 55.46 48.28 55.46 51.34C55.46 54.34 54.14 55.42 52.04 55.42C49.94 55.42 48.62 54.34 48.62 51.34V48.34H42.38V50.92C42.38 57.64 45.74 61.48 52.22 61.48C58.7 61.48 62.06 57.64 62.06 50.92C62.06 46.12 60.32 42.64 54.8 37.78C50.48 34 49.16 31.72 49.16 28.66C49.16 25.66 50.36 24.52 52.46 24.52C54.56 24.52 55.76 25.66 55.76 28.66V30.4H62V29.08C62 22.36 58.7 18.52 52.28 18.52C45.86 18.52 42.56 22.36 42.56 29.08Z" fill="#90C7A8"/>
</g>
<defs>
<clipPath id="clip0">
<rect width="80" height="80" fill="white"/>
</clipPath>
</defs>
</svg>
