<svg width="512" height="512" viewBox="0 0 512 512" fill="none" xmlns="http://www.w3.org/2000/svg">
<path d="M512 304.057V300.388C512 255.626 491.432 221.137 450.296 196.921C422.382 180.777 380.511 171.237 325.418 167.568L301.176 166.101L370.961 41.3525L357.739 31.8129L341.578 60.4316C295.3 47.223 248.287 31.0791 201.274 12L132.958 72.9064C103.575 99.3237 80.0689 137.482 80.0689 174.906C41.1363 193.252 21.3027 216.734 21.3027 245.352C21.3027 251.957 22.7719 259.295 26.4448 268.834C37.4634 297.453 59.5007 317.266 91.8221 329.741C121.94 340.748 149.854 345.151 177.033 342.949L185.848 342.216L168.953 378.172C150.588 375.971 130.755 374.503 109.452 374.503C36.7288 374.503 0 400.187 0 450.82C0 483.841 30.1176 508.057 64.6428 510.259L86.6801 511.726C106.514 513.194 132.224 508.791 164.545 497.784C176.298 494.115 200.539 483.841 236.534 468.431L327.621 505.856C362.146 488.244 389.326 472.834 409.894 458.892C478.209 412.662 512 361.295 512 304.057ZM306.319 123.539L281.343 168.302L241.676 174.173C227.719 176.374 213.762 177.842 201.274 177.842C152.057 177.842 127.082 161.698 127.082 129.41L126.347 127.209C126.347 111.799 132.958 100.057 146.181 91.2518C157.934 83.1798 171.891 78.7769 187.317 78.7769H199.07C234.33 82.446 270.324 97.8561 306.319 123.539ZM462.049 330.475C462.049 369.367 439.277 408.259 393.733 447.885L328.356 422.935C357.004 407.525 376.838 395.784 388.591 386.244C409.894 369.367 420.913 351.755 420.913 334.144C420.913 325.338 419.443 317.266 415.77 309.194C404.752 282.777 375.369 269.568 327.621 269.568C309.991 269.568 282.812 271.77 245.349 275.439L265.917 232.878C290.158 229.208 311.461 227.741 330.56 227.741C408.425 227.741 451.765 254.158 460.58 306.259C461.314 312.129 462.049 317.266 462.049 321.669V330.475ZM242.41 236.547L220.373 276.906C196.867 280.575 178.502 282.777 165.28 282.777C132.958 282.777 105.779 275.439 84.4763 257.827C71.9885 246.82 65.3773 235.813 65.3773 224.806C65.3773 213.065 71.9885 201.324 85.2109 188.849C99.9024 222.604 134.428 239.482 189.521 239.482C202.009 239.482 219.638 238.748 242.41 236.547ZM357.739 356.892C357.739 365.698 350.393 376.705 336.436 389.913L307.053 414.129C251.96 396.518 212.293 385.511 186.582 381.108L206.416 341.482C267.386 335.611 300.442 332.676 305.584 332.676C323.948 332.676 337.905 334.144 346.72 337.813C354.066 342.216 357.739 348.82 357.739 356.892ZM212.293 461.827C163.076 487.51 119.001 499.985 79.3343 499.985C52.155 499.985 34.5251 491.18 26.4448 474.302L22.7719 462.561C22.7719 450.82 29.3831 442.014 41.8709 435.41C52.155 430.273 63.9082 427.338 76.396 427.338C113.125 427.338 158.669 439.079 212.293 461.827Z" fill="#90C7A8"/>
<path d="M0 83.2H20.8V104H0V83.2ZM20.8 62.4H41.6V83.2H20.8V62.4ZM41.6 41.6H62.4V62.4H41.6V41.6ZM62.4 20.8H83.2V41.6H62.4V20.8ZM83.2 0H104V20.8H83.2V0ZM20.8 20.8H41.6V41.6H20.8V20.8ZM0 0H20.8V20.8H0V0ZM62.4 62.4H83.2V83.2H62.4V62.4ZM83.2 83.2H104V104H83.2V83.2Z" fill="black"/>
</svg>
